<?xml version="1.0" encoding="UTF-8" standalone="no"?>
<svg
   xmlns:dc="http://purl.org/dc/elements/1.1/"
   xmlns:cc="http://creativecommons.org/ns#"
   xmlns:rdf="http://www.w3.org/1999/02/22-rdf-syntax-ns#"
   xmlns:svg="http://www.w3.org/2000/svg"
   xmlns="http://www.w3.org/2000/svg"
   xmlns:sodipodi="http://sodipodi.sourceforge.net/DTD/sodipodi-0.dtd"
   xmlns:inkscape="http://www.inkscape.org/namespaces/inkscape"
   width="374.6203"
   height="391.38229"
   viewBox="0 0 99.11829 103.55323"
   version="1.1"
   id="svg8"
   inkscape:version="1.0.2 (e86c870879, 2021-01-15)"
   sodipodi:docname="logo.svg"
   inkscape:export-filename="/home/robert/code/localcert/marketing/static/logo-180x180.png"
   inkscape:export-xdpi="45.720001"
   inkscape:export-ydpi="45.720001">
  <defs
     id="defs2">
    <inkscape:perspective
       sodipodi:type="inkscape:persp3d"
       inkscape:vp_x="0 : -44.946774 : 1"
       inkscape:vp_y="0 : 999.99995 : 0"
       inkscape:vp_z="210.00001 : -44.946774 : 1"
       inkscape:persp3d-origin="105 : -94.446773 : 1"
       id="perspective61" />
  </defs>
  <sodipodi:namedview
     id="base"
     pagecolor="#ffffff"
     bordercolor="#666666"
     borderopacity="1.0"
     inkscape:pageopacity="0.0"
     inkscape:pageshadow="2"
     inkscape:zoom="1.0051111"
     inkscape:cx="196.4163"
     inkscape:cy="157.02428"
     inkscape:document-units="mm"
     inkscape:current-layer="layer1"
     inkscape:document-rotation="0"
     showgrid="false"
     inkscape:window-width="1920"
     inkscape:window-height="1005"
     inkscape:window-x="0"
     inkscape:window-y="0"
     inkscape:window-maximized="1"
     fit-margin-top="10"
     lock-margins="false"
     fit-margin-left="0"
     fit-margin-right="0"
     fit-margin-bottom="10"
     units="px" />
  <metadata
     id="metadata5">
    <rdf:RDF>
      <cc:Work
         rdf:about="">
        <dc:format>image/svg+xml</dc:format>
        <dc:type
           rdf:resource="http://purl.org/dc/dcmitype/StillImage" />
        <dc:title></dc:title>
      </cc:Work>
    </rdf:RDF>
  </metadata>
  <g
     inkscape:label="Layer 1"
     inkscape:groupmode="layer"
     id="layer1"
     style="display:inline"
     transform="translate(-0.69079763,1.784854)">
    <path
       style="fill:#333333;stroke-width:0.755952"
       d="M 26.62643,29.703645 C 13.6335,24.491837 3.0070448,20.03732 3.0120877,19.80472 3.0234119,19.282506 49.142935,0.86097935 50.439012,0.86097935 c 0.858171,0 45.82396,17.76034665 47.350272,18.70215765 0.526785,0.325051 -25.127508,10.95671 -44.515531,18.448136 l -3.023809,1.168384 z"
       id="path45" />
    <path
       style="fill:#333333;stroke-width:0.755952"
       d="M 25.303514,49.28487 1.1130382,39.572373 0.90191925,30.10475 0.69079763,20.637131 25.281381,30.483851 49.871968,40.330573 v 9.36937 c 0,5.153152 -0.08505,9.353182 -0.18899,9.333396 -0.103944,-0.01979 -11.074701,-4.406595 -24.379464,-9.748469 z"
       id="path47" />
    <path
       style="fill:#333333;fill-opacity:1;stroke-width:0.755952"
       d="m 50.627919,49.763982 v -9.305327 l 24.00645,-9.593482 c 13.203547,-5.276413 24.269822,-9.593482 24.591719,-9.593482 0.321897,0 0.489754,4.148664 0.373015,9.219251 l -0.212257,9.21925 -24.174526,9.679558 c -13.29599,5.323758 -24.26675,9.679562 -24.379465,9.679562 -0.112715,0 -0.204936,-4.187399 -0.204936,-9.30533 z"
       id="path49" />
    <path
       style="fill:#800080;fill-opacity:1;stroke-width:0.755952"
       d="M 24.745269,69.048101 0.75250111,59.447288 0.74379632,50.105993 C 0.73577944,41.526932 0.843023,40.80423 2.0579923,41.24917 2.7855965,41.515629 13.837274,45.889302 26.617276,50.96844 l 23.236367,9.234799 0.0092,9.260417 c 0.0051,5.093229 -0.245965,9.243507 -0.557798,9.22284 -0.311829,-0.02066 -11.363708,-4.357946 -24.55973,-9.638395 z"
       id="path51" />
    <path
       style="fill:#800080;fill-opacity:1;stroke-width:0.755952"
       d="m 50.793638,69.504822 0.212257,-9.21925 24.174527,-9.679558 c 13.295989,-5.323758 24.266749,-9.679559 24.379464,-9.679559 0.112715,0 0.204936,4.187396 0.204936,9.305327 v 9.305327 L 75.758375,69.13059 c -13.203547,5.276417 -24.269822,9.593482 -24.591722,9.593482 -0.321897,0 -0.489754,-4.148661 -0.373015,-9.21925 z"
       id="path53" />
    <path
       style="fill:#b3b3b3;fill-opacity:1;stroke-width:0.755952"
       d="M 25.114527,89.081922 0.73506242,79.323026 V 69.963152 60.603279 L 4.3258366,62.023864 C 30.252137,72.280855 48.85234,79.801247 49.329289,80.219558 c 0.325186,0.285211 0.495276,4.591672 0.377976,9.569913 l -0.213276,9.051351 z"
       id="path55" />
    <path
       style="fill:#b3b3b3;fill-opacity:1;stroke-width:0.755952"
       d="m 50.627919,89.759295 v -9.363246 l 24.590584,-9.846723 24.590584,-9.84672 -0.211119,9.464117 -0.211122,9.464114 -21.166666,8.466145 C 66.578513,92.75336 55.607756,97.138996 53.840718,97.842835 l -3.212799,1.27971 z"
       id="path57" />
    <path
       style="fill:#e6e6e6;fill-opacity:1;stroke-width:0.0812057"
       d="M 25.114617,89.03544 0.83414888,79.31145 0.81351138,69.990973 C 0.79700138,62.544061 0.8133394,60.67854 0.8947173,60.710501 17.25033,67.134193 44.619033,78.148268 48.501834,79.869184 l 0.812056,0.359915 0.09223,0.368089 c 0.28733,1.146743 0.346176,6.273246 0.158115,13.774483 -0.05967,2.380242 -0.122142,4.341222 -0.138818,4.357738 -0.01667,0.01651 -10.956531,-4.345774 -24.31079,-9.693969 z"
       id="path83" />
    <path
       style="fill:#e6e6e6;fill-opacity:1;stroke-width:0.0812057"
       d="m 50.653774,89.738737 v -9.297381 l 6.597955,-2.649553 c 12.685418,-5.094111 42.487598,-17.012145 42.502708,-16.997037 0.0084,0.0084 -0.07201,3.833921 -0.178639,8.501194 -0.106632,4.667274 -0.194958,8.894564 -0.196276,9.393979 l -0.0024,0.908023 -24.219566,9.680181 C 61.836815,94.602242 50.874059,98.975828 50.795898,98.99722 50.661159,99.0341 50.65379,98.554064 50.65379,89.738737 Z"
       id="path85" />
    <path
       style="fill:#7137c8;fill-opacity:1;stroke-width:0.263238"
       d="m 43.530524,76.323651 c -3.112788,-1.21326 -13.951611,-5.51135 -24.086269,-9.55131 L 1.0176004,59.426957 v -8.839689 c 0,-5.554245 0.098036,-8.937609 0.263771,-9.103148 0.2883165,-0.287978 1.822921,0.30027 30.6666846,11.755225 l 17.768559,7.05657 -0.06477,8.193511 c -0.03562,4.506431 -0.154082,8.609004 -0.263239,9.116832 l -0.198464,0.923325 z"
       id="path87" />
    <path
       style="fill:#5a2ca0;fill-opacity:1;stroke-width:0.263238"
       d="m 51.012732,77.061566 c -0.243401,-1.943383 0.04175,-16.382868 0.329126,-16.666332 0.205994,-0.203189 46.414687,-18.676297 47.666055,-19.055725 l 0.592285,-0.179586 -0.0011,9.165256 -0.0011,9.165254 -17.14046,6.81939 c -15.507142,6.169564 -31.006211,12.26536 -31.185712,12.26536 -0.03835,0 -0.15503,-0.68113 -0.259294,-1.513617 z"
       id="path89" />
    <path
       style="fill:#660080;fill-opacity:1;stroke-width:0.263238"
       d="m 43.925381,76.330496 c -2.750836,-1.074902 -13.4712,-5.328254 -23.82303,-9.451899 L 1.2808396,59.38106 1.2030998,51.538612 c -0.042757,-4.313349 -0.00725,-8.336831 0.078917,-8.941073 l 0.1566598,-1.098619 1.7637469,0.61055 c 2.3984849,0.830276 9.6776245,3.683297 28.2191565,11.060348 8.61446,3.427402 16.195712,6.43391 16.847224,6.681123 l 1.184572,0.44948 -0.04849,8.777853 c -0.02667,4.827821 -0.14513,8.874318 -0.26324,8.992222 -0.11811,0.117898 -2.46543,-0.665102 -5.216265,-1.74 z"
       id="path91" />
    <path
       style="fill:#672178;fill-opacity:1;stroke-width:0.263238"
       d="m 51.268026,77.939003 c -0.07871,-0.205118 -0.104609,-4.177855 -0.05755,-8.828307 0.07253,-7.167329 0.145711,-8.492786 0.48042,-8.701013 0.293711,-0.182721 37.128246,-14.939634 46.662313,-18.694188 l 1.253775,-0.493742 -0.0692,9.101752 -0.0692,9.101751 -14.741324,5.850355 c -18.526712,7.352655 -32.99044,13.036333 -33.174628,13.036333 -0.07782,0 -0.20589,-0.167825 -0.284601,-0.372941 z"
       id="path93" />
    <path
       style="fill:#672178;fill-opacity:1;stroke-width:0.263238"
       d="M 45.504808,76.748847 C 43.622658,76.05413 33.079978,71.902955 22.076634,67.524009 11.073291,63.145067 1.9224807,59.503837 1.7415057,59.432392 1.4874316,59.332086 1.4124592,57.299654 1.4124592,50.512182 c 0,-4.834668 0.09311,-8.790305 0.2069121,-8.790305 0.4187481,0 8.2966798,3.056125 27.6963057,10.744372 l 19.874462,7.876426 0.06788,6.549683 c 0.03733,3.602326 -0.02191,7.577918 -0.13162,8.834647 l -0.199501,2.28496 z"
       id="path95" />
    <path
       style="fill:#5a2ca0;fill-opacity:1;stroke-width:0.263238"
       d="m 51.431255,69.851059 c 0.0019,-4.540097 0.07284,-8.512919 0.15748,-8.828495 0.129778,-0.483889 3.884822,-2.065121 23.970078,-10.093698 13.098909,-5.235959 23.849951,-9.479129 23.89121,-9.429268 0.04126,0.04986 0.0031,4.10364 -0.08483,9.008393 L 99.205339,59.425724 87.096397,64.22216 C 64.076492,73.340503 52.791814,77.7634 52.111062,77.934259 l -0.683403,0.171522 z"
       id="path97" />
    <path
       style="fill:#5a2ca0;fill-opacity:1;stroke-width:0.263238"
       d="M 46.952616,77.210404 C 44.909509,76.437604 23.718191,68.076636 11.770995,63.329606 L 1.7285913,59.339417 1.5379802,55.78052 c -0.1716431,-3.204715 0.045048,-13.511742 0.2894357,-13.767168 0.054401,-0.05686 0.8421052,0.163013 1.7504515,0.488601 1.5657645,0.561234 38.3654986,15.033461 43.1115116,16.954458 l 2.237521,0.90566 0.0778,7.592939 c 0.0748,7.299901 -0.03491,9.846103 -0.422979,9.816742 -0.09971,-0.0075 -0.832813,-0.260151 -1.629108,-0.561348 z"
       id="path99" />
  </g>
</svg>
